M48
;GenerationSoftware,Autodesk,EAGLE,9.5.1*%
;CreationDate,2021-05-28T16:37:56Z*%
FMAT,2
ICI,OFF
METRIC,TZ,000.000
T4C0.700
T3C0.813
T2C1.016
T1C3.000
%
G90
M71
T1
X-3556Y8636
X-108966Y8636
T2
X-118618Y21082
X-3048Y22098
X-99060Y22098
X-96520Y22098
X-82550Y22098
X-80010Y22098
X-109982Y22098
X-66040Y22098
X-63500Y22098
X-33020Y22098
X-49530Y22098
X-13970Y22098
X-16510Y22098
X-121158Y23622
X-118618Y23622
X-121158Y21082
X-46990Y22098
X-121158Y18542
X-118618Y18542
X-121158Y16002
X-118618Y16002
X-121158Y13462
X-118618Y13462
X-121158Y10922
X-118618Y10922
X-121158Y8382
X-118618Y8382
X-121158Y5842
X-118618Y5842
X-30480Y22098
X-5588Y22098
X-107442Y22098
T3
X-10287Y16510
X-10287Y13970
X-18923Y11430
X-18923Y16510
X-18923Y13970
X-68453Y16510
X-26797Y16510
X-26797Y13970
X-35433Y11430
X-35433Y16510
X-35433Y13970
X-43053Y11430
X-43053Y16510
X-43053Y13970
X-51943Y11430
X-51943Y16510
X-51943Y13970
X-59563Y11430
X-59563Y16510
X-59563Y13970
X-68453Y11430
X-68453Y13970
X-76327Y11430
X-76327Y16510
X-76327Y13970
X-84963Y11430
X-84963Y16510
X-92583Y11430
X-92583Y16510
X-92583Y13970
X-26797Y11430
X-10287Y11430
X-84963Y13970
T4
X-82550Y14986
X-13970Y14986
X-33020Y14986
X-30480Y14986
X-49530Y14986
X-46990Y14986
X-96520Y14732
X-16510Y14986
X-80010Y14986
X-66040Y14986
X-63500Y14986
M30