M48
;GenerationSoftware,Autodesk,EAGLE,9.5.1*%
;CreationDate,2021-05-28T16:37:56Z*%
FMAT,2
ICI,OFF
METRIC,TZ,000.000
T4C0.700
T3C0.813
T2C1.016
T1C3.000
%
G90
M71
T1
X-003556Y008636
X-108966Y008636
T2
X-118618Y021082
X-003048Y022098
X-099060Y022098
X-096520Y022098
X-082550Y022098
X-080010Y022098
X-109982Y022098
X-066040Y022098
X-063500Y022098
X-033020Y022098
X-049530Y022098
X-013970Y022098
X-016510Y022098
X-121158Y023622
X-118618Y023622
X-121158Y021082
X-046990Y022098
X-121158Y018542
X-118618Y018542
X-121158Y016002
X-118618Y016002
X-121158Y013462
X-118618Y013462
X-121158Y010922
X-118618Y010922
X-121158Y008382
X-118618Y008382
X-121158Y005842
X-118618Y005842
X-030480Y022098
X-005588Y022098
X-107442Y022098
T3
X-010287Y016510
X-010287Y013970
X-018923Y011430
X-018923Y016510
X-018923Y013970
X-068453Y016510
X-026797Y016510
X-026797Y013970
X-035433Y011430
X-035433Y016510
X-035433Y013970
X-043053Y011430
X-043053Y016510
X-043053Y013970
X-051943Y011430
X-051943Y016510
X-051943Y013970
X-059563Y011430
X-059563Y016510
X-059563Y013970
X-068453Y011430
X-068453Y013970
X-076327Y011430
X-076327Y016510
X-076327Y013970
X-084963Y011430
X-084963Y016510
X-092583Y011430
X-092583Y016510
X-092583Y013970
X-026797Y011430
X-010287Y011430
X-084963Y013970
T4
X-082550Y014986
X-013970Y014986
X-033020Y014986
X-030480Y014986
X-049530Y014986
X-046990Y014986
X-096520Y014732
X-016510Y014986
X-080010Y014986
X-066040Y014986
X-063500Y014986
M30